# xmcd CD database file
#
# Track frame offsets:
#	150
#	21723
#	45417
#	69648
#	89597
#	110672
#	140564
#
# Disc length: 2193 seconds
#
# Revision: 0
# Processed by: cddbd v1.5.1PL2 Copyright (c) Steve Scherf et al.
# Submitted via: CDex 1.51
#
DISCID=67088f07
DTITLE=The Modern Jazz Quartet - Plastic Dreams
DYEAR=1971
DGENRE=Jazz
TTITLE0=Walkin' Stomp
TTITLE1=Dancing
TTITLE2=Plastic Dreams
TTITLE3=Variations on a Christmas Theme
TTITLE4=Trav'lin
TTITLE5=Piazza Navona
TTITLE6=England's Carol
EXTD=YEAR: 1971
EXTT0=
EXTT1=
EXTT2=
EXTT3=
EXTT4=
EXTT5=
EXTT6=
PLAYORDER=
